<svg width="20" height="20" viewBox="0 0 20 20" fill="none" xmlns="http://www.w3.org/2000/svg">
<path d="M18.125 15.625C18.125 15.7908 18.0592 15.9497 17.9419 16.067C17.8247 16.1842 17.6658 16.25 17.5 16.25C17.3342 16.25 17.1753 16.1842 17.0581 16.067C16.9409 15.9497 16.875 15.7908 16.875 15.625C16.8729 13.8023 16.1479 12.0548 14.8591 10.7659C13.5702 9.47707 11.8227 8.75208 10 8.75001H4.0086L6.69219 11.4328C6.80947 11.5501 6.87535 11.7092 6.87535 11.875C6.87535 12.0409 6.80947 12.1999 6.69219 12.3172C6.57492 12.4345 6.41586 12.5004 6.25 12.5004C6.08415 12.5004 5.92509 12.4345 5.80782 12.3172L2.05782 8.5672C1.99971 8.50915 1.95361 8.44022 1.92215 8.36435C1.8907 8.28848 1.87451 8.20715 1.87451 8.12501C1.87451 8.04288 1.8907 7.96155 1.92215 7.88567C1.95361 7.8098 1.99971 7.74087 2.05782 7.68282L5.80782 3.93282C5.92509 3.81555 6.08415 3.74966 6.25 3.74966C6.41586 3.74966 6.57492 3.81555 6.69219 3.93282C6.80947 4.0501 6.87535 4.20916 6.87535 4.37501C6.87535 4.54086 6.80947 4.69992 6.69219 4.8172L4.0086 7.50001H10C12.1542 7.50229 14.2195 8.35904 15.7427 9.88228C17.266 11.4055 18.1227 13.4708 18.125 15.625Z" fill="#6B7280"/>
</svg>
